<?xml version="1.0" encoding="UTF-8" standalone="no"?>
<!-- Created with Inkscape (http://www.inkscape.org/) -->
<svg xmlns:dc="http://purl.org/dc/elements/1.1/" xmlns:cc="http://creativecommons.org/ns#" xmlns:rdf="http://www.w3.org/1999/02/22-rdf-syntax-ns#" xmlns:svg="http://www.w3.org/2000/svg" xmlns="http://www.w3.org/2000/svg" xmlns:xlink="http://www.w3.org/1999/xlink" xmlns:sodipodi="http://sodipodi.sourceforge.net/DTD/sodipodi-0.dtd" xmlns:inkscape="http://www.inkscape.org/namespaces/inkscape" width="263.04794" height="615.29242" id="svg9465" sodipodi:version="0.32" inkscape:version="0.46" version="1.0" sodipodi:docname="microfono_old.svg" inkscape:output_extension="org.inkscape.output.svg.inkscape">
  <defs id="defs3">
    <linearGradient inkscape:collect="always" xlink:href="#linearGradient9312" id="linearGradient9463" gradientUnits="userSpaceOnUse" gradientTransform="translate(-3.53553, 64.877)" spreadMethod="reflect" x1="259.87589" y1="280.96942" x2="275.22763" y2="282.91397"/>
    <linearGradient inkscape:collect="always" xlink:href="#linearGradient9289" id="linearGradient9461" gradientUnits="userSpaceOnUse" spreadMethod="reflect" x1="247.60396" y1="281.92871" x2="303.78714" y2="281.43274"/>
    <linearGradient inkscape:collect="always" xlink:href="#linearGradient9312" id="linearGradient9451" gradientUnits="userSpaceOnUse" gradientTransform="translate(-3.53553, 64.877)" spreadMethod="reflect" x1="259.87589" y1="280.96942" x2="275.22763" y2="282.91397"/>
    <linearGradient inkscape:collect="always" xlink:href="#linearGradient9289" id="linearGradient9449" gradientUnits="userSpaceOnUse" spreadMethod="reflect" x1="247.60396" y1="281.92871" x2="303.78714" y2="281.43274"/>
    <filter inkscape:collect="always" id="filter9412" x="-0.17425872" width="1.3485174" y="-0.35300329" height="1.7060066">
      <feGaussianBlur inkscape:collect="always" stdDeviation="2.3211806" id="feGaussianBlur9414"/>
    </filter>
    <linearGradient inkscape:collect="always" id="linearGradient9312">
      <stop style="stop-color: rgb(238, 238, 236); stop-opacity: 1;" offset="0" id="stop9314"/>
      <stop style="stop-color: rgb(238, 238, 236); stop-opacity: 0;" offset="1" id="stop9316"/>
    </linearGradient>
    <linearGradient inkscape:collect="always" xlink:href="#linearGradient9312" id="linearGradient9318" x1="259.87589" y1="280.96942" x2="275.22763" y2="282.91397" gradientUnits="userSpaceOnUse" spreadMethod="reflect" gradientTransform="translate(-0.883883, -0.176777)"/>
    <filter inkscape:collect="always" id="filter9273">
      <feGaussianBlur inkscape:collect="always" stdDeviation="0.81867662" id="feGaussianBlur9275"/>
    </filter>
    <linearGradient inkscape:collect="always" id="linearGradient9229">
      <stop style="stop-color: rgb(89, 92, 87); stop-opacity: 1;" offset="0" id="stop9231"/>
      <stop style="stop-color: rgb(89, 92, 87); stop-opacity: 0;" offset="1" id="stop9233"/>
    </linearGradient>
    <linearGradient inkscape:collect="always" xlink:href="#linearGradient9229" id="linearGradient9235" x1="238" y1="274.73718" x2="310.75" y2="274.73718" gradientUnits="userSpaceOnUse"/>
    <linearGradient id="linearGradient9289">
      <stop style="stop-color: rgb(149, 152, 139); stop-opacity: 1;" offset="0" id="stop9291"/>
      <stop id="stop9297" offset="0.22419655" style="stop-color: rgb(91, 93, 83); stop-opacity: 1;"/>
      <stop style="stop-color: rgb(63, 64, 57); stop-opacity: 1;" offset="1" id="stop9293"/>
    </linearGradient>
    <linearGradient inkscape:collect="always" xlink:href="#linearGradient9289" id="linearGradient9295" x1="247.60396" y1="281.92871" x2="303.78714" y2="281.43274" gradientUnits="userSpaceOnUse" spreadMethod="reflect"/>
    <linearGradient inkscape:collect="always" id="linearGradient9195">
      <stop style="stop-color: rgb(136, 138, 133); stop-opacity: 1;" offset="0" id="stop9197"/>
      <stop style="stop-color: rgb(136, 138, 133); stop-opacity: 0;" offset="1" id="stop9199"/>
    </linearGradient>
    <linearGradient inkscape:collect="always" xlink:href="#linearGradient9195" id="linearGradient9201" x1="279.57233" y1="122.73773" x2="281.87045" y2="138.91281" gradientUnits="userSpaceOnUse" gradientTransform="matrix(2.13641, 0, 0, 2.13641, -240.412, 150.282)"/>
    <linearGradient id="linearGradient8990">
      <stop style="stop-color: rgb(209, 212, 204); stop-opacity: 1;" offset="0" id="stop8992"/>
      <stop id="stop8998" offset="0.5" style="stop-color: rgb(245, 245, 245); stop-opacity: 1;"/>
      <stop style="stop-color: rgb(158, 164, 147); stop-opacity: 1;" offset="1" id="stop8994"/>
    </linearGradient>
    <linearGradient inkscape:collect="always" xlink:href="#linearGradient8990" id="linearGradient8996" x1="235.375" y1="81.529793" x2="283.69315" y2="69.779793" gradientUnits="userSpaceOnUse" spreadMethod="reflect" gradientTransform="matrix(2.13641, 0, 0, 2.13641, -239.344, 150.282)"/>
    <linearGradient id="linearGradient9020">
      <stop id="stop9022" offset="0" style="stop-color: rgb(209, 212, 204); stop-opacity: 1;"/>
      <stop style="stop-color: rgb(245, 245, 245); stop-opacity: 0.306338;" offset="0.54821736" id="stop9024"/>
      <stop id="stop9026" offset="1" style="stop-color: rgb(158, 164, 147); stop-opacity: 1;"/>
    </linearGradient>
    <linearGradient inkscape:collect="always" xlink:href="#linearGradient9020" id="linearGradient9018" x1="263.84375" y1="104.41302" x2="273.9389" y2="125.91302" gradientUnits="userSpaceOnUse" gradientTransform="matrix(2.13641, 0, 0, 2.13641, -241.481, 149.214)"/>
    <filter inkscape:collect="always" id="filter9082" x="-0.071557157" width="1.1431143" y="-0.26295474" height="1.5259095">
      <feGaussianBlur inkscape:collect="always" stdDeviation="1.9341853" id="feGaussianBlur9084"/>
    </filter>
    <linearGradient inkscape:collect="always" id="linearGradient9088">
      <stop style="stop-color: rgb(136, 138, 133); stop-opacity: 1;" offset="0" id="stop9090"/>
      <stop style="stop-color: rgb(136, 138, 133); stop-opacity: 0;" offset="1" id="stop9092"/>
    </linearGradient>
    <linearGradient inkscape:collect="always" xlink:href="#linearGradient9088" id="linearGradient9094" x1="309.84375" y1="112.16302" x2="279.4389" y2="110.41302" gradientUnits="userSpaceOnUse" gradientTransform="matrix(2.13641, 0, 0, 2.13641, -240.412, 150.282)"/>
    <linearGradient id="linearGradient9174">
      <stop id="stop9176" offset="0" style="stop-color: rgb(209, 212, 204); stop-opacity: 1;"/>
      <stop style="stop-color: rgb(245, 245, 245); stop-opacity: 1;" offset="0.35454544" id="stop9178"/>
      <stop id="stop9180" offset="1" style="stop-color: rgb(158, 164, 147); stop-opacity: 1;"/>
    </linearGradient>
    <linearGradient inkscape:collect="always" xlink:href="#linearGradient9174" id="linearGradient9183" gradientUnits="userSpaceOnUse" gradientTransform="matrix(2.13641, 0, 0, 2.13641, -239.722, 114.194)" x1="270.5" y1="173.11218" x2="284.25" y2="173.11218"/>
    <linearGradient inkscape:collect="always" id="linearGradient9110">
      <stop style="stop-color: rgb(164, 167, 159); stop-opacity: 1;" offset="0" id="stop9112"/>
      <stop style="stop-color: rgb(164, 167, 159); stop-opacity: 0;" offset="1" id="stop9114"/>
    </linearGradient>
    <linearGradient inkscape:collect="always" xlink:href="#linearGradient9110" id="linearGradient9130" gradientUnits="userSpaceOnUse" gradientTransform="matrix(1.99588, 0, 0, 1.99588, -191.153, 145.113)" x1="278.26123" y1="132.03726" x2="280.95407" y2="148.82248"/>
    <linearGradient id="linearGradient9150">
      <stop style="stop-color: rgb(166, 158, 128); stop-opacity: 1;" offset="0" id="stop9152"/>
      <stop id="stop9158" offset="0.61850369" style="stop-color: rgb(204, 200, 183); stop-opacity: 1;"/>
      <stop style="stop-color: rgb(245, 244, 240); stop-opacity: 0.94702;" offset="1" id="stop9154"/>
    </linearGradient>
    <linearGradient inkscape:collect="always" xlink:href="#linearGradient9150" id="linearGradient9156" x1="321.5625" y1="135.79968" x2="324.6875" y2="129.61218" gradientUnits="userSpaceOnUse"/>
    <inkscape:perspective sodipodi:type="inkscape:persp3d" inkscape:vp_x="0 : 526.18109 : 1" inkscape:vp_y="0 : 1000 : 0" inkscape:vp_z="744.09448 : 526.18109 : 1" inkscape:persp3d-origin="372.04724 : 350.78739 : 1" id="perspective9471"/>
  </defs>
  <sodipodi:namedview inkscape:document-units="mm" id="base" pagecolor="#ffffff" bordercolor="#666666" borderopacity="1.0" inkscape:pageopacity="0.0" inkscape:pageshadow="2" inkscape:zoom="0.98994949" inkscape:cx="184.83284" inkscape:cy="239.12005" inkscape:current-layer="layer1" showgrid="false" inkscape:window-width="1272" inkscape:window-height="944" inkscape:window-x="0" inkscape:window-y="0"/>
  <metadata id="metadata4">
    <rdf:RDF>
      <cc:Work rdf:about="">
        <dc:format>image/svg+xml</dc:format>
        <dc:type rdf:resource="http://purl.org/dc/dcmitype/StillImage"/>
      </cc:Work>
    </rdf:RDF>
  </metadata>
  <g inkscape:label="Layer 1" inkscape:groupmode="layer" id="layer1" transform="translate(-218.476, -224.716)">
    <g transform="matrix(3.47258, 0, 0, 3.47258, -606.603, -396.807)" id="g9453">
      <path sodipodi:type="arc" style="fill: url(#linearGradient9461) rgb(0, 0, 0); fill-opacity: 1; fill-rule: nonzero; stroke: none; stroke-width: 3; stroke-linecap: square; stroke-linejoin: round; stroke-miterlimit: 4; stroke-dasharray: none; stroke-dashoffset: 0pt; stroke-opacity: 1;" id="path9455" sodipodi:cx="274.375" sodipodi:cy="274.73718" sodipodi:rx="36.375" sodipodi:ry="15.375" d="M 310.75,274.73718 A 36.375,15.375 0 1 1 238,274.73718 A 36.375,15.375 0 1 1 310.75,274.73718 z" transform="matrix(1.04124, 0, 0, 1.00813, -10.2161, 63.6952)"/>
      <path transform="translate(1.34835, 63.8038)" d="M 310.75,274.73718 A 36.375,14.31434 0 1 1 238,274.73718 A 36.375,14.31434 0 1 1 310.75,274.73718 z" sodipodi:ry="14.31434" sodipodi:rx="36.375" sodipodi:cy="274.73718" sodipodi:cx="274.375" id="path9457" style="fill: rgb(67, 70, 69); fill-opacity: 1; fill-rule: nonzero; stroke: none; stroke-width: 3; stroke-linecap: square; stroke-linejoin: round; stroke-miterlimit: 4; stroke-dasharray: none; stroke-dashoffset: 0pt; stroke-opacity: 1;" sodipodi:type="arc"/>
      <path id="path9459" d="M 242.55178,336.01129 L 242.55178,345.01129 C 248.97479,349.06856 260.39225,351.79254 273.42678,351.79254 C 273.79595,351.79254 274.15399,351.76559 274.52053,351.76129 L 274.52053,343.48004 C 274.51006,343.48004 274.49975,343.48004 274.48928,343.48004 C 260.70363,343.48004 248.71568,340.46072 242.55178,336.01129 z" style="opacity: 0.426056; fill: url(#linearGradient9463) rgb(0, 0, 0); fill-opacity: 1; fill-rule: nonzero; stroke: none; stroke-width: 3; stroke-linecap: square; stroke-linejoin: round; stroke-miterlimit: 4; stroke-dasharray: none; stroke-dashoffset: 0pt; stroke-opacity: 1; filter: url(#filter9412);"/>
    </g>
    <g id="g9444" transform="matrix(2.78455, 0, 0, 2.78455, -414.049, -185.024)">
      <path transform="matrix(1.04124, 0, 0, 1.00813, -10.2161, 63.6952)" d="M 310.75,274.73718 A 36.375,15.375 0 1 1 238,274.73718 A 36.375,15.375 0 1 1 310.75,274.73718 z" sodipodi:ry="15.375" sodipodi:rx="36.375" sodipodi:cy="274.73718" sodipodi:cx="274.375" id="path9424" style="fill: url(#linearGradient9449) rgb(0, 0, 0); fill-opacity: 1; fill-rule: nonzero; stroke: none; stroke-width: 3; stroke-linecap: square; stroke-linejoin: round; stroke-miterlimit: 4; stroke-dasharray: none; stroke-dashoffset: 0pt; stroke-opacity: 1;" sodipodi:type="arc"/>
      <path sodipodi:type="arc" style="fill: rgb(67, 70, 69); fill-opacity: 1; fill-rule: nonzero; stroke: none; stroke-width: 3; stroke-linecap: square; stroke-linejoin: round; stroke-miterlimit: 4; stroke-dasharray: none; stroke-dashoffset: 0pt; stroke-opacity: 1;" id="path9426" sodipodi:cx="274.375" sodipodi:cy="274.73718" sodipodi:rx="36.375" sodipodi:ry="14.31434" d="M 310.75,274.73718 A 36.375,14.31434 0 1 1 238,274.73718 A 36.375,14.31434 0 1 1 310.75,274.73718 z" transform="translate(1.34835, 63.8038)"/>
      <path style="opacity: 0.426056; fill: url(#linearGradient9451) rgb(0, 0, 0); fill-opacity: 1; fill-rule: nonzero; stroke: none; stroke-width: 3; stroke-linecap: square; stroke-linejoin: round; stroke-miterlimit: 4; stroke-dasharray: none; stroke-dashoffset: 0pt; stroke-opacity: 1; filter: url(#filter9412);" d="M 242.55178,336.01129 L 242.55178,345.01129 C 248.97479,349.06856 260.39225,351.79254 273.42678,351.79254 C 273.79595,351.79254 274.15399,351.76559 274.52053,351.76129 L 274.52053,343.48004 C 274.51006,343.48004 274.49975,343.48004 274.48928,343.48004 C 260.70363,343.48004 248.71568,340.46072 242.55178,336.01129 z" id="path9430"/>
    </g>
    <g id="g9416" transform="matrix(2.13641, 0, 0, 2.13641, -240.412, 150.282)">
      <path sodipodi:type="arc" style="opacity: 1; fill: url(#linearGradient9295) rgb(0, 0, 0); fill-opacity: 1; fill-rule: nonzero; stroke: none; stroke-width: 3; stroke-linecap: square; stroke-linejoin: round; stroke-miterlimit: 4; stroke-dasharray: none; stroke-dashoffset: 0pt; stroke-opacity: 1;" id="path9219" sodipodi:cx="274.375" sodipodi:cy="274.73718" sodipodi:rx="36.375" sodipodi:ry="15.375" d="M 310.75,274.73718 A 36.375,15.375 0 1 1 238,274.73718 A 36.375,15.375 0 1 1 310.75,274.73718 z" transform="matrix(1.04124, 0, 0, 1.00813, -7.56443, -1.35864)"/>
      <path transform="translate(4, -1.25)" d="M 310.75,274.73718 A 36.375,14.31434 0 1 1 238,274.73718 A 36.375,14.31434 0 1 1 310.75,274.73718 z" sodipodi:ry="14.31434" sodipodi:rx="36.375" sodipodi:cy="274.73718" sodipodi:cx="274.375" id="path9203" style="opacity: 1; fill: rgb(67, 70, 69); fill-opacity: 1; fill-rule: nonzero; stroke: none; stroke-width: 3; stroke-linecap: square; stroke-linejoin: round; stroke-miterlimit: 4; stroke-dasharray: none; stroke-dashoffset: 0pt; stroke-opacity: 1;" sodipodi:type="arc"/>
      <path sodipodi:type="arc" style="opacity: 1; fill: url(#linearGradient9235) rgb(0, 0, 0); fill-opacity: 1; fill-rule: nonzero; stroke: none; stroke-width: 3; stroke-linecap: square; stroke-linejoin: round; stroke-miterlimit: 4; stroke-dasharray: none; stroke-dashoffset: 0pt; stroke-opacity: 1; filter: url(#filter9273);" id="path9217" sodipodi:cx="274.375" sodipodi:cy="274.73718" sodipodi:rx="36.375" sodipodi:ry="15.375" d="M 310.75,274.73718 A 36.375,15.375 0 1 1 238,274.73718 A 36.375,15.375 0 1 1 310.75,274.73718 z" transform="matrix(0.872886, 0, 0, 0.521488, 39.3769, 124.465)"/>
      <path id="path9307" d="M 245.20343,270.95747 L 245.20343,279.95747 C 251.62644,284.01474 263.0439,286.73872 276.07843,286.73872 C 276.4476,286.73872 276.80564,286.71177 277.17218,286.70747 L 277.17218,278.42622 C 277.16171,278.42622 277.1514,278.42622 277.14093,278.42622 C 263.35528,278.42622 251.36733,275.4069 245.20343,270.95747 z" style="opacity: 0.426056; fill: url(#linearGradient9318) rgb(0, 0, 0); fill-opacity: 1; fill-rule: nonzero; stroke: none; stroke-width: 3; stroke-linecap: square; stroke-linejoin: round; stroke-miterlimit: 4; stroke-dasharray: none; stroke-dashoffset: 0pt; stroke-opacity: 1; filter: url(#filter9412);"/>
    </g>
    <path style="fill: url(#linearGradient9201) rgb(0, 0, 0); fill-opacity: 1; fill-rule: evenodd; stroke: none; stroke-width: 1px; stroke-linecap: butt; stroke-linejoin: miter; stroke-opacity: 1;" d="M 355.16932,419.015 L 367.25467,419.015 L 367.44351,446.77356 L 338.17429,455.83758 L 338.74078,449.60606 L 355.16932,419.015 z" id="path9185"/>
    <path id="path9118" d="M 341.05299,413.66976 L 361.51687,405.20195 L 367.16208,406.61326 L 371.396,439.07319 C 371.396,439.07319 367.86774,443.30711 357.98861,444.01276 C 348.10949,444.7184 343.8756,436.25059 343.8756,436.25059 L 341.05299,413.66976 z" style="fill: rgb(230, 231, 228); fill-opacity: 1; fill-rule: evenodd; stroke: none; stroke-width: 1px; stroke-linecap: butt; stroke-linejoin: miter; stroke-opacity: 1;"/>
    <path style="opacity: 1; fill: rgb(46, 52, 54); fill-opacity: 1; fill-rule: evenodd; stroke: none; stroke-width: 1px; stroke-linecap: butt; stroke-linejoin: miter; stroke-opacity: 1;" d="M 263.24633,281.10984 C 263.24633,281.10984 279.26941,378.8506 281.40582,394.87367 C 283.54223,410.89674 314.52017,427.98802 328.40684,422.647 C 342.2935,417.30597 398.90836,397.54418 398.90836,397.54418 C 398.90836,397.54418 420.80656,384.19162 415.99964,354.81599 C 411.19272,325.44035 392.49913,252.26831 392.49913,252.26831 C 392.49913,252.26831 380.21478,221.29037 350.83914,225.02909 C 321.4635,228.7678 278.2012,247.46139 263.24633,281.10984 z" id="path8975"/>
    <path style="opacity: 1; fill: url(#linearGradient8996) rgb(0, 0, 0); fill-opacity: 1; fill-rule: evenodd; stroke: none; stroke-width: 1px; stroke-linecap: butt; stroke-linejoin: miter; stroke-opacity: 1;" d="M 356.44722,224.98971 C 354.7436,224.9682 352.94218,225.08985 351.10619,225.32353 C 321.73055,229.06224 278.46825,247.75583 263.51339,281.40428 C 263.51339,281.40428 264.24241,285.90446 264.31454,286.34473 L 287.21418,273.79332 L 288.21563,279.66845 L 265.24922,292.21986 C 265.46085,293.51318 266.12686,297.24662 266.45095,299.22995 L 289.41736,286.67855 L 290.35203,292.55367 L 267.38563,305.10508 C 267.73833,307.26638 267.97494,308.71775 268.38707,311.24726 L 291.42024,298.62909 L 292.42168,304.43745 L 269.32175,317.12239 C 269.86295,320.45 269.93669,320.78195 270.52348,324.39953 L 293.62341,311.78136 L 294.62485,317.65649 L 271.45816,330.34142 C 271.90471,333.10171 272.14188,334.62087 272.59313,337.41828 L 295.82659,324.73335 L 296.82803,330.60847 L 273.59457,343.36017 C 273.95883,345.62391 274.23806,347.67115 274.59601,349.90293 L 297.89623,337.15123 L 298.89767,343.02636 L 275.59745,355.84482 C 275.95315,358.07019 276.32584,360.38486 276.66566,362.5211 L 300.03264,349.70264 L 301.03408,355.57777 L 277.60034,368.39622 C 278.05514,371.2701 278.39957,373.70198 278.80207,376.27424 L 302.36934,363.38901 L 303.30402,369.26414 L 279.73675,382.14936 C 280.61417,387.83117 281.34412,392.70246 281.67287,395.16811 C 283.80928,411.19118 314.78722,428.28246 328.67389,422.94144 C 342.56055,417.60041 399.17541,397.83862 399.17541,397.83862 C 399.17541,397.83862 420.36845,384.91433 416.46698,356.51244 L 416.33345,356.71273 L 413.86323,355.17719 C 400.8397,346.736 377.85849,348.4316 358.18305,352.84049 C 338.50761,357.24938 322.33142,363.92312 322.33142,363.92312 L 319.59415,365.05808 L 319.32709,364.39046 L 318.45918,359.18296 L 320.06148,358.51533 C 320.06148,358.51533 336.59907,351.63622 356.84779,347.09889 C 366.97215,344.83021 378.08768,343.02283 388.62689,343.09312 C 398.35713,343.158 407.6096,344.81252 415.19849,349.10177 L 412.86179,343.89427 L 410.39156,342.35873 C 397.36803,333.91754 374.38682,335.61314 354.71138,340.02203 C 335.03594,344.43092 318.85975,351.10466 318.85975,351.10466 L 317.19068,351.77229 L 316.18924,345.89716 L 316.58982,345.69687 C 316.58982,345.69687 333.1274,338.81776 353.37613,334.28043 C 363.50049,332.01175 374.61601,330.20437 385.15522,330.27466 C 395.31751,330.34243 404.96032,332.15897 412.72826,336.88418 L 410.19128,331.07581 L 407.72105,329.54027 C 394.69752,321.09908 371.71631,322.79468 352.04087,327.20357 C 332.36543,331.61246 316.18924,338.2862 316.18924,338.2862 L 314.98751,338.75354 L 313.98607,332.87841 C 314.15121,332.80981 330.55871,325.97648 350.70561,321.46197 C 360.82997,319.1933 371.9455,317.38591 382.48471,317.4562 C 392.62569,317.52384 402.23144,319.36258 409.99099,324.06572 L 408.05487,317.18915 L 405.58464,315.65361 C 392.56111,307.21242 369.5799,308.90802 349.90446,313.31691 C 330.22902,317.7258 314.05283,324.39953 314.05283,324.39953 L 312.65081,325.0004 L 311.64937,319.05851 L 311.7829,318.99175 C 311.7829,318.99175 328.32048,312.11263 348.5692,307.57531 C 358.69356,305.30663 369.80909,303.49925 380.3483,303.56954 C 389.96834,303.63369 399.11254,305.26266 406.65285,309.44466 C 406.20138,307.50395 405.70552,305.63359 405.25083,303.70306 L 404.78349,303.36925 C 391.75996,294.92806 368.77874,296.62366 349.10331,301.03255 C 329.42787,305.44144 313.25168,312.11518 313.25168,312.11518 L 310.64793,313.18338 L 309.64649,307.24149 L 310.98174,306.70739 C 310.98174,306.70739 327.51933,299.82828 347.76805,295.29095 C 357.89241,293.02227 369.00794,291.21489 379.54715,291.28518 C 388.16602,291.34267 396.40107,292.67848 403.44823,295.95858 C 403.00899,294.11994 402.67784,292.54066 402.2465,290.75108 L 401.84593,290.55079 C 388.82239,282.1096 365.84118,283.8052 346.16574,288.21409 C 326.49031,292.62298 310.31411,299.29672 310.31411,299.29672 L 308.44476,300.09787 L 307.44331,294.15598 L 308.04418,293.88893 C 308.04418,293.88893 324.58176,287.00982 344.83049,282.47249 C 354.95485,280.20381 366.07037,278.39643 376.60958,278.46672 C 385.15001,278.52368 393.30567,279.85853 400.31038,283.07336 C 399.89214,281.35968 399.57261,279.88288 399.17541,278.26643 L 397.84016,277.46528 C 384.81662,269.02409 361.83541,270.71969 342.15997,275.12858 C 322.48454,279.53747 306.30835,286.21121 306.30835,286.21121 L 306.10806,286.27797 L 305.10662,280.40284 C 307.7804,279.32073 322.44649,273.50517 340.82472,269.38698 C 350.94908,267.1183 362.06461,265.31092 372.60382,265.38121 C 381.52416,265.44071 390.03404,266.85025 397.23929,270.38842 C 396.9162,269.0863 396.46563,267.16351 396.17109,265.98208 L 394.90259,265.18092 C 381.87906,256.73973 358.89785,258.43534 339.22241,262.84422 C 320.61556,267.01366 305.59795,272.9992 303.97165,273.6598 L 302.97021,267.78467 C 307.19079,266.11511 320.93192,260.90195 337.88715,257.10262 C 348.01152,254.83395 359.12704,253.02657 369.66625,253.09685 C 378.53084,253.15597 386.99157,254.54773 394.1682,258.0373 C 393.72141,256.27229 392.76618,252.56275 392.76618,252.56275 C 392.76618,252.56275 382.00158,225.31244 356.44722,224.98971 z" id="path8886" sodipodi:nodetypes="cscccccccccccccccccccccccccccccccccssccccscccccsscccsccccsscccscccsscccsccccsscccsccccsscccsccccsscccscccsscccsccssccc"/>
    <path style="opacity: 1; fill: url(#linearGradient9018) rgb(0, 0, 0); fill-opacity: 1; fill-rule: evenodd; stroke: none; stroke-width: 1px; stroke-linecap: butt; stroke-linejoin: miter; stroke-opacity: 1;" d="M 393.16676,349.50235 C 359.52982,348.52862 309.08205,368.6411 279.4697,382.81699 C 280.19202,387.52861 280.85388,391.96326 281.13877,394.09991 C 283.27518,410.12298 314.25312,427.21426 328.13978,421.87323 C 342.02645,416.53221 398.64131,396.77042 398.64131,396.77042 C 398.64131,396.77042 419.79151,383.86584 415.93288,355.511 L 415.79935,355.64453 L 413.32913,354.10898 C 412.85544,353.80196 412.35975,353.52164 411.86035,353.24107 C 406.61458,350.8814 400.29423,349.70868 393.16676,349.50235 z" id="path8977"/>
    <path style="opacity: 1; fill: rgb(209, 212, 204); fill-opacity: 1; fill-rule: evenodd; stroke: rgb(209, 212, 204); stroke-width: 3; stroke-linecap: butt; stroke-linejoin: miter; stroke-miterlimit: 4; stroke-dasharray: none; stroke-opacity: 1; filter: url(#filter9082);" d="M 315.06428,463.57147 C 315.94816,463.57147 358.9049,440.59051 378.17356,450.49" id="path9028" sodipodi:nodetypes="cc" transform="matrix(2.13641, 0, 0, 2.13641, -397.743, -604.982)"/>
    <path id="path9086" d="M 393.16676,349.50235 C 359.52982,348.52862 309.08205,368.6411 279.4697,382.81699 C 280.19202,387.52861 280.85388,391.96326 281.13877,394.09991 C 283.27518,410.12298 314.25312,427.21426 328.13978,421.87323 C 342.02645,416.53221 398.64131,396.77042 398.64131,396.77042 C 398.64131,396.77042 419.79151,383.86584 415.93288,355.511 L 415.79935,355.64453 L 413.32913,354.10898 C 412.85544,353.80196 412.35975,353.52164 411.86035,353.24107 C 406.61458,350.8814 400.29423,349.70868 393.16676,349.50235 z" style="opacity: 1; fill: url(#linearGradient9094) rgb(0, 0, 0); fill-opacity: 1; fill-rule: evenodd; stroke: none; stroke-width: 1px; stroke-linecap: butt; stroke-linejoin: miter; stroke-opacity: 1;"/>
    <path style="fill: url(#linearGradient9183) rgb(0, 0, 0); fill-opacity: 1; fill-rule: nonzero; stroke: none; stroke-width: 3; stroke-linecap: square; stroke-linejoin: round; stroke-miterlimit: 4; stroke-dashoffset: 0pt; stroke-opacity: 1;" d="M 338.17711,418.87169 L 352.86493,418.87169 L 360.20884,418.87169 L 367.55274,418.87169 L 367.55274,724.3783 C 367.55274,724.3783 359.95279,728.2912 352.86493,728.65112 C 346.33467,728.98273 338.17711,724.3783 338.17711,724.3783 L 338.17711,418.87169 z" id="rect9164" sodipodi:nodetypes="cccccscc"/>
    <path style="fill: rgb(230, 231, 228); fill-opacity: 1; fill-rule: evenodd; stroke: none; stroke-width: 1px; stroke-linecap: butt; stroke-linejoin: miter; stroke-opacity: 1;" d="M 326.09812,417.47058 L 348.00284,408.40657 L 354.04551,409.91724 L 358.57754,444.66264 C 358.57754,444.66264 354.80086,449.19465 344.22616,449.95 C 333.65147,450.70532 329.11946,441.64131 329.11946,441.64131 L 326.09812,417.47058 z" id="path9100"/>
    <path style="fill: url(#linearGradient9130) rgb(0, 0, 0); fill-opacity: 1; fill-rule: evenodd; stroke: none; stroke-width: 1px; stroke-linecap: butt; stroke-linejoin: miter; stroke-opacity: 1;" d="M 361.98853,410.65708 L 362.45587,412.72673 L 354.17728,412.0591 L 353.97699,410.32327 L 347.90158,408.78772 L 353.50965,447.91073 C 361.41383,444.75192 358.51684,445.03993 358.51686,445.03993 L 355.0452,418.66862 L 363.32378,418.66862 L 366.66193,442.16913 C 374.04619,439.2181 371.33534,439.43183 371.33532,439.43185 L 366.86221,408.85449 L 361.98853,410.65708 z" id="path9120" sodipodi:nodetypes="ccccccccccccc"/>
    <path transform="matrix(2.13641, 0, 0, 2.13641, -349.636, 148.68)" d="M 326,132.36218 A 3,4.5 0 1 1 320,132.36218 A 3,4.5 0 1 1 326,132.36218 z" sodipodi:ry="4.5" sodipodi:rx="3" sodipodi:cy="132.36218" sodipodi:cx="323" id="path9160" style="opacity: 1; fill: rgb(209, 212, 204); fill-opacity: 1; fill-rule: nonzero; stroke: none; stroke-width: 3; stroke-linecap: square; stroke-linejoin: round; stroke-miterlimit: 4; stroke-dasharray: none; stroke-dashoffset: 0pt; stroke-opacity: 1;" sodipodi:type="arc"/>
    <path sodipodi:type="arc" style="opacity: 1; fill: url(#linearGradient9156) rgb(0, 0, 0); fill-opacity: 1; fill-rule: nonzero; stroke: none; stroke-width: 3; stroke-linecap: square; stroke-linejoin: round; stroke-miterlimit: 4; stroke-dasharray: none; stroke-dashoffset: 0pt; stroke-opacity: 1;" id="path9132" sodipodi:cx="323" sodipodi:cy="132.36218" sodipodi:rx="3" sodipodi:ry="4.5" d="M 326,132.36218 A 3,4.5 0 1 1 320,132.36218 A 3,4.5 0 1 1 326,132.36218 z" transform="matrix(2.13641, 0, 0, 2.13641, -350.437, 147.078)"/>
    <path style="fill: rgb(156, 147, 113); fill-opacity: 1; fill-rule: evenodd; stroke: none; stroke-width: 1px; stroke-linecap: butt; stroke-linejoin: miter; stroke-opacity: 1;" d="M 333.54757,426.27958 L 333.72496,428.7498 L 342.8276,435.2487 L 344.0961,434.15759 L 333.54757,426.27958 z" id="path9136" sodipodi:nodetypes="ccccc"/>
  </g>
</svg>